<?xml version="1.0" standalone="no"?>
<!DOCTYPE svg PUBLIC "-//W3C//DTD SVG 20010904//EN"
 "http://www.w3.org/TR/2001/REC-SVG-20010904/DTD/svg10.dtd">
<svg version="1.0" xmlns="http://www.w3.org/2000/svg"
 width="600.000000pt" height="600.000000pt" viewBox="0 0 600.000000 600.000000"
 preserveAspectRatio="xMidYMid meet">

<g transform="translate(0.000000,600.000000) scale(0.100000,-0.100000)"
fill="#000000" stroke="none">
<path d="M2724 5340 c3 -36 13 -128 21 -205 8 -77 15 -143 15 -147 0 -5 5 -8
11 -8 6 0 9 6 6 14 -3 7 -13 98 -23 202 -9 104 -21 194 -27 199 -6 7 -7 -12
-3 -55z"/>
<path d="M3091 5283 c-6 -54 -14 -113 -17 -130 -6 -40 11 -44 19 -5 8 41 21
232 15 232 -2 0 -10 -44 -17 -97z"/>
<path d="M2343 5307 c3 -8 20 -61 38 -116 17 -56 36 -101 41 -101 6 0 7 8 4
17 -4 10 -21 59 -37 110 -17 51 -35 96 -41 99 -7 5 -9 2 -5 -9z"/>
<path d="M3472 5299 c-19 -51 -23 -69 -14 -69 5 0 14 19 20 42 12 47 8 64 -6
27z"/>
<path d="M2903 5135 c0 -38 2 -53 4 -32 2 20 2 52 0 70 -2 17 -4 1 -4 -38z"/>
<path d="M3237 5164 c-4 -4 -7 -23 -6 -43 l1 -36 9 33 c11 36 9 58 -4 46z"/>
<path d="M1990 5156 c0 -2 30 -55 66 -116 36 -62 80 -137 97 -168 76 -136 123
-212 130 -212 5 0 6 3 4 8 -181 327 -297 517 -297 488z"/>
<path d="M3710 4958 c-63 -110 -118 -210 -123 -221 -6 -17 -5 -18 8 -7 8 7 15
17 15 23 0 6 6 18 14 26 7 9 31 48 51 86 21 39 67 118 102 176 34 59 63 110
63 113 0 25 -30 -20 -130 -196z"/>
<path d="M2560 5138 c0 -7 5 -20 10 -28 8 -12 10 -9 10 13 0 15 -4 27 -10 27
-5 0 -10 -6 -10 -12z"/>
<path d="M3072 5094 c-1 -12 -5 -43 -8 -70 -5 -38 -4 -46 5 -38 8 7 11 33 8
70 -2 32 -4 50 -5 38z"/>
<path d="M2581 5070 c0 -14 6 -54 15 -90 12 -55 27 -124 81 -372 3 -16 9 -28
14 -28 12 0 14 -16 -26 161 -19 85 -38 170 -41 189 -3 19 -10 39 -15 45 -5 5
-9 23 -10 40 -1 16 -5 41 -9 55 l-8 25 -1 -25z"/>
<path d="M2422 5068 c16 -65 54 -168 61 -168 5 0 6 7 3 16 -3 8 -16 49 -27 90
-12 41 -26 74 -31 74 -5 0 -8 -6 -6 -12z"/>
<path d="M3212 5042 c-7 -23 -15 -66 -17 -95 l-5 -52 20 70 c11 39 19 81 17
95 -2 20 -4 17 -15 -18z"/>
<path d="M3541 5025 c-24 -54 -24 -55 -12 -55 11 0 46 88 38 96 -3 3 -15 -16
-26 -41z"/>
<path d="M2265 4975 c49 -107 66 -138 72 -131 3 2 -8 33 -25 68 -17 35 -37 80
-46 101 -8 20 -19 37 -25 37 -5 0 6 -34 24 -75z"/>
<path d="M3376 5010 c-10 -27 -53 -164 -60 -195 -7 -29 -7 -29 8 -10 8 11 16
25 16 31 0 6 11 46 25 89 14 43 24 83 22 89 -3 7 -7 5 -11 -4z"/>
<path d="M2902 4823 c-1 -117 2 -183 8 -183 11 0 12 199 0 300 -5 48 -7 19 -8
-117z"/>
<path d="M3486 4890 c-15 -34 -25 -64 -22 -67 7 -7 58 106 54 119 -2 5 -16
-19 -32 -52z"/>
<path d="M1680 4934 c0 -14 126 -153 138 -153 8 -1 -19 35 -59 79 -70 78 -79
86 -79 74z"/>
<path d="M4087 4876 c-31 -36 -57 -68 -57 -72 0 -11 55 43 92 89 51 64 25 51
-35 -17z"/>
<path d="M3836 4868 c-14 -18 -23 -34 -21 -37 6 -5 55 50 55 62 0 13 -8 7 -34
-25z"/>
<path d="M2775 4843 c13 -115 37 -344 44 -416 5 -42 12 -81 16 -85 4 -4 5 22
1 58 -3 36 -8 90 -11 120 -3 30 -10 91 -15 135 -5 44 -12 115 -16 158 -3 42
-10 77 -16 77 -5 0 -6 -21 -3 -47z"/>
<path d="M1957 4853 c34 -54 105 -144 110 -139 6 6 -109 166 -120 166 -4 0 0
-12 10 -27z"/>
<path d="M2340 4823 c0 -7 13 -41 29 -75 15 -35 74 -164 131 -288 56 -124 106
-229 111 -234 14 -15 11 7 -5 40 -8 16 -48 103 -89 194 -41 91 -89 195 -106
233 -17 37 -31 70 -31 72 0 2 -9 19 -20 37 -11 18 -20 27 -20 21z"/>
<path d="M3142 4708 c-23 -116 -26 -146 -16 -135 5 5 54 221 54 240 0 4 -4 7
-8 7 -5 0 -18 -51 -30 -112z"/>
<path d="M2510 4806 c0 -20 72 -238 77 -233 6 7 -44 178 -63 215 -8 15 -14 23
-14 18z"/>
<path d="M3992 4778 c-7 -7 -12 -19 -12 -27 0 -11 4 -10 20 4 21 19 26 35 12
35 -4 0 -13 -5 -20 -12z"/>
<path d="M3396 4687 c-22 -50 -50 -115 -63 -144 -25 -56 -31 -90 -10 -58 7 11
28 56 46 100 19 44 44 103 57 132 26 56 28 63 17 63 -5 0 -26 -42 -47 -93z"/>
<path d="M3296 4761 c-4 -7 -5 -15 -2 -18 9 -9 19 4 14 18 -4 11 -6 11 -12 0z"/>
<path d="M3038 4754 c-5 -4 -8 -19 -8 -33 0 -18 3 -22 11 -14 6 6 9 21 7 33
-1 12 -6 18 -10 14z"/>
<path d="M1886 4698 c17 -18 110 -122 208 -231 98 -109 181 -195 184 -192 3 3
-10 22 -29 43 -20 20 -54 57 -76 82 -22 25 -87 97 -143 160 -57 63 -115 127
-128 142 -14 15 -30 28 -36 28 -5 0 4 -15 20 -32z"/>
<path d="M3615 4558 c-103 -146 -136 -200 -104 -170 7 7 39 50 71 95 31 45 78
112 104 149 26 38 45 70 42 73 -2 3 -53 -63 -113 -147z"/>
<path d="M2080 4691 c0 -8 53 -83 127 -180 2 -2 6 -2 9 1 5 6 -123 188 -132
188 -2 0 -4 -4 -4 -9z"/>
<path d="M3511 4611 c-28 -48 -51 -91 -51 -95 0 -18 22 10 56 72 20 37 44 77
52 90 8 12 10 22 4 22 -6 0 -33 -40 -61 -89z"/>
<path d="M3842 4603 c-39 -43 -68 -80 -66 -83 3 -2 21 13 41 35 20 22 52 57
72 77 19 21 32 40 29 43 -3 3 -37 -29 -76 -72z"/>
<path d="M4085 4643 c-16 -14 -55 -49 -85 -77 -30 -28 -128 -118 -218 -200
-90 -81 -161 -151 -157 -154 3 -3 18 6 33 19 175 160 422 387 441 405 34 32
23 38 -14 7z"/>
<path d="M1420 4645 c0 -2 54 -44 121 -92 164 -120 159 -116 165 -110 5 5
-265 206 -278 207 -5 0 -8 -2 -8 -5z"/>
<path d="M1691 4643 c0 -5 32 -35 70 -68 39 -33 92 -80 119 -104 28 -24 50
-39 50 -34 0 10 -224 213 -235 213 -3 0 -5 -3 -4 -7z"/>
<path d="M3255 4638 c-32 -92 -61 -198 -55 -198 4 0 24 47 43 105 19 58 31
105 26 105 -5 0 -12 -6 -14 -12z"/>
<path d="M4353 4619 c-24 -17 -43 -32 -43 -35 0 -13 30 1 65 31 49 43 35 45
-22 4z"/>
<path d="M2900 4610 c0 -11 5 -20 10 -20 6 0 10 9 10 20 0 11 -4 20 -10 20 -5
0 -10 -9 -10 -20z"/>
<path d="M3020 4618 c0 -7 -7 -71 -15 -143 -8 -71 -15 -143 -15 -159 0 -61 11
-15 25 105 8 68 17 143 20 167 2 24 0 42 -5 42 -6 0 -10 -6 -10 -12z"/>
<path d="M2340 4550 c16 -31 161 -283 166 -289 2 -2 6 -2 9 0 6 6 -151 279
-172 299 -14 14 -14 13 -3 -10z"/>
<path d="M4195 4504 c-108 -80 -100 -73 -93 -80 6 -5 198 132 198 141 0 13
-22 0 -105 -61z"/>
<path d="M3108 4535 c-3 -14 -1 -28 3 -31 5 -3 9 9 9 25 0 38 -6 40 -12 6z"/>
<path d="M2600 4512 c0 -11 5 -24 10 -27 6 -3 10 -17 10 -30 0 -13 5 -27 10
-30 6 -4 8 -10 5 -15 -3 -5 -1 -11 5 -15 14 -8 13 1 -8 67 -20 63 -32 82 -32
50z"/>
<path d="M2705 4483 c4 -21 13 -60 20 -88 7 -27 16 -67 19 -87 4 -21 12 -38
17 -38 6 0 8 8 5 18 -6 20 -36 155 -43 195 -3 15 -10 30 -15 33 -6 4 -7 -9 -3
-33z"/>
<path d="M3705 4453 c-84 -97 -82 -111 3 -21 49 52 60 68 45 68 -4 -1 -26 -22
-48 -47z"/>
<path d="M2265 4433 c10 -16 44 -62 75 -103 31 -41 75 -101 98 -132 24 -32 47
-58 52 -58 8 0 -49 81 -190 272 -37 51 -64 66 -35 21z"/>
<path d="M3413 4438 c-24 -32 -64 -110 -61 -119 2 -5 21 20 42 56 21 36 36 68
34 71 -3 2 -10 -1 -15 -8z"/>
<path d="M1940 4423 c0 -11 190 -176 196 -171 5 5 -180 178 -190 178 -3 0 -6
-3 -6 -7z"/>
<path d="M3182 4401 c-7 -19 -12 -41 -11 -50 0 -9 7 2 15 23 8 22 13 45 11 50
-2 6 -9 -5 -15 -23z"/>
<path d="M1759 4396 c6 -7 30 -26 54 -42 23 -16 75 -53 115 -83 40 -30 75 -51
78 -48 3 3 -14 20 -38 37 -24 17 -79 58 -123 91 -77 57 -110 74 -86 45z"/>
<path d="M4060 4399 c0 -5 5 -7 10 -4 6 3 10 8 10 11 0 2 -4 4 -10 4 -5 0 -10
-5 -10 -11z"/>
<path d="M4295 4386 c-11 -8 -74 -46 -140 -85 -66 -39 -129 -77 -140 -83 -11
-7 -39 -24 -62 -38 -24 -14 -43 -28 -43 -32 0 -4 16 3 36 15 20 12 65 38 99
57 137 76 284 165 285 173 0 10 -12 8 -35 -7z"/>
<path d="M1490 4366 c0 -2 46 -30 103 -62 56 -32 117 -66 135 -77 17 -10 32
-15 32 -10 0 8 -40 32 -165 101 -33 19 -64 38 -69 43 -10 9 -36 13 -36 5z"/>
<path d="M3230 4306 c-33 -75 -33 -76 -22 -76 10 0 66 129 58 137 -3 3 -19
-24 -36 -61z"/>
<path d="M3935 4315 c-28 -20 -51 -40 -53 -45 -2 -6 -8 -10 -13 -10 -10 0
-189 -129 -189 -137 0 -3 7 -3 15 0 17 7 305 217 305 223 0 10 -19 1 -65 -31z"/>
<path d="M1230 4313 c0 -5 19 -17 43 -27 23 -10 75 -34 116 -52 41 -19 76 -32
79 -29 3 3 3 7 1 10 -4 3 -123 57 -226 102 -7 3 -13 1 -13 -4z"/>
<path d="M3390 4240 c-28 -40 -49 -75 -45 -78 3 -4 9 -2 13 4 4 5 27 38 50 73
61 87 46 88 -18 1z"/>
<path d="M4505 4280 c-33 -16 -54 -29 -47 -30 15 0 112 39 127 52 20 18 -23 6
-80 -22z"/>
<path d="M4360 4218 c-71 -33 -76 -36 -68 -43 6 -7 148 57 148 67 0 12 -9 9
-80 -24z"/>
<path d="M1490 4200 c0 -5 19 -19 42 -30 47 -23 48 -23 48 -12 0 4 -20 18 -45
30 -25 12 -45 17 -45 12z"/>
<path d="M1824 4196 c-7 -18 21 -78 47 -102 38 -35 17 -32 -48 6 -70 40 -83
42 -83 10 0 -33 53 -83 125 -117 l70 -34 -107 7 c-102 6 -108 5 -108 -13 0
-36 36 -56 108 -62 82 -7 69 -22 -28 -30 -48 -5 -65 -10 -65 -21 0 -23 61 -57
132 -74 71 -16 105 -36 62 -36 -26 0 -69 -25 -69 -40 0 -17 71 -40 121 -40 48
0 48 0 37 -25 -14 -32 4 -55 44 -55 24 0 27 -3 20 -16 -13 -24 -3 -52 20 -60
11 -3 28 -14 38 -24 10 -10 40 -21 67 -25 69 -9 67 -9 68 -41 l0 -29 63 3 c52
2 63 0 69 -15 13 -38 36 -53 79 -53 24 0 46 -4 49 -10 8 -14 98 -13 112 1 8 8
17 5 32 -10 28 -28 65 -36 102 -21 16 7 32 10 36 6 11 -11 -29 -46 -149 -132
-64 -47 -126 -96 -138 -111 -18 -24 -19 -28 -6 -42 17 -16 91 -31 176 -36 30
-1 67 -7 81 -13 15 -6 36 -8 47 -5 12 3 40 -2 64 -11 36 -14 55 -15 118 -5 41
6 95 13 120 15 24 3 54 13 65 23 11 10 38 21 59 24 72 11 74 26 17 93 -72 84
-120 154 -127 189 l-6 30 57 -3 c33 -2 62 1 68 7 6 6 19 11 29 11 19 0 99 39
109 53 3 4 13 9 22 11 9 1 24 9 34 18 10 9 27 18 38 20 11 2 24 13 30 26 6 15
18 22 36 22 28 0 53 22 63 58 6 17 15 22 40 22 39 0 71 30 63 59 -4 16 6 23
65 42 38 12 72 28 75 35 3 7 20 22 39 33 37 22 53 64 35 93 -8 12 -8 18 0 18
12 0 84 49 117 80 20 19 23 29 17 59 -4 20 -11 41 -16 48 -7 8 1 29 26 66 41
61 42 90 6 95 -18 3 -34 -9 -70 -49 -101 -116 -146 -154 -246 -206 -124 -63
-207 -89 -316 -98 -46 -4 -122 -15 -168 -26 -46 -11 -87 -17 -90 -13 -13 13
-2 112 18 157 25 59 25 57 2 57 -11 0 -33 11 -49 25 -36 30 -90 33 -120 8 -13
-11 -29 -51 -43 -103 -30 -115 -63 -150 -141 -150 -36 0 -64 7 -88 21 -19 12
-93 34 -165 49 -180 39 -265 64 -348 107 -85 42 -192 121 -262 192 -60 62 -80
66 -72 16 5 -32 4 -34 -13 -25 -11 6 -31 26 -46 45 -29 38 -42 43 -50 21z
m2206 -286 c0 -5 -5 -10 -11 -10 -5 0 -7 5 -4 10 3 6 8 10 11 10 2 0 4 -4 4
-10z"/>
<path d="M2180 4207 c0 -2 45 -43 100 -91 55 -47 100 -83 100 -78 0 5 -19 26
-42 47 -24 21 -64 58 -90 82 -40 36 -68 53 -68 40z"/>
<path d="M2340 4192 c0 -4 23 -30 50 -57 61 -60 65 -52 8 16 -38 46 -58 60
-58 41z"/>
<path d="M3531 4135 c-19 -20 -32 -37 -30 -39 4 -5 79 61 79 69 0 13 -18 2
-49 -30z"/>
<path d="M4205 4140 c-3 -5 -2 -10 4 -10 5 0 13 5 16 10 3 6 2 10 -4 10 -5 0
-13 -4 -16 -10z"/>
<path d="M3721 4047 c-46 -28 -78 -53 -72 -55 7 -2 20 2 29 10 9 7 38 24 65
38 26 13 47 28 47 32 0 5 6 8 14 8 8 0 18 5 21 10 13 21 -23 6 -104 -43z"/>
<path d="M3470 4075 c-8 -9 -8 -15 -2 -15 12 0 26 19 19 26 -2 2 -10 -2 -17
-11z"/>
<path d="M4385 4064 c-62 -21 -116 -52 -75 -42 49 11 160 53 160 60 0 11 -5
10 -85 -18z"/>
<path d="M1356 4051 c14 -14 174 -61 174 -51 0 4 -38 19 -84 34 -91 28 -105
31 -90 17z"/>
<path d="M4260 4020 c-12 -8 -10 -10 8 -10 13 0 20 4 17 10 -7 12 -6 12 -25 0z"/>
<path d="M4173 3993 c-23 -9 -14 -20 12 -15 14 2 25 8 25 13 0 10 -17 11 -37
2z"/>
<path d="M4670 3948 c-59 -13 -80 -33 -25 -24 58 10 75 16 75 27 0 5 -1 9 -2
8 -2 -1 -23 -6 -48 -11z"/>
<path d="M1120 3943 c0 -9 110 -36 118 -28 6 6 -37 22 -82 30 -20 4 -36 3 -36
-2z"/>
<path d="M1255 3912 c15 -15 75 -26 75 -13 0 6 -8 11 -17 11 -10 0 -29 3 -43
6 -17 5 -22 3 -15 -4z"/>
<path d="M4510 3909 c-19 -5 -64 -13 -100 -19 -36 -6 -69 -15 -74 -21 -13 -12
25 -12 59 1 14 5 56 15 93 20 37 6 71 15 77 21 11 11 -6 10 -55 -2z"/>
<path d="M1348 3893 c7 -3 16 -2 19 1 4 3 -2 6 -13 5 -11 0 -14 -3 -6 -6z"/>
<path d="M1425 3870 c3 -5 22 -10 41 -10 21 0 33 4 29 10 -3 6 -22 10 -41 10
-21 0 -33 -4 -29 -10z"/>
<path d="M1515 3860 c-5 -8 42 -20 78 -20 30 0 17 8 -31 18 -23 6 -44 6 -47 2z"/>
<path d="M4280 3860 c-12 -8 -11 -10 8 -10 12 0 22 5 22 10 0 13 -11 13 -30 0z"/>
<path d="M4123 3829 c-47 -13 -41 -23 9 -15 52 8 85 26 48 25 -14 -1 -40 -5
-57 -10z"/>
<path d="M4508 3755 c-3 -3 -31 -7 -64 -10 -32 -3 -79 -8 -104 -11 -53 -8 -62
-9 -208 -25 -66 -7 -109 -16 -104 -21 5 -5 90 1 203 16 107 13 222 27 256 31
35 4 60 11 57 16 -6 10 -28 12 -36 4z"/>
<path d="M1296 3711 c13 -12 194 -25 194 -13 0 5 -34 12 -77 16 -103 8 -129 8
-117 -3z"/>
<path d="M1520 3690 c0 -5 21 -10 46 -10 27 0 43 4 39 10 -3 6 -24 10 -46 10
-21 0 -39 -4 -39 -10z"/>
<path d="M1700 3670 c20 -13 40 -13 40 0 0 6 -12 10 -27 10 -22 0 -25 -2 -13
-10z"/>
<path d="M1075 3560 c-4 -6 43 -10 134 -10 87 0 141 4 141 10 0 6 -51 10 -134
10 -79 0 -137 -4 -141 -10z"/>
<path d="M1360 3560 c0 -5 23 -10 50 -10 28 0 50 5 50 10 0 6 -22 10 -50 10
-27 0 -50 -4 -50 -10z"/>
<path d="M1470 3560 c0 -6 55 -10 145 -10 90 0 145 4 145 10 0 6 -55 10 -145
10 -90 0 -145 -4 -145 -10z"/>
<path d="M1840 3560 c0 -5 23 -10 50 -10 28 0 50 5 50 10 0 6 -22 10 -50 10
-27 0 -50 -4 -50 -10z"/>
<path d="M3860 3560 c0 -6 30 -10 70 -10 40 0 70 4 70 10 0 6 -30 10 -70 10
-40 0 -70 -4 -70 -10z"/>
<path d="M4055 3560 c8 -13 224 -10 231 2 3 4 -49 8 -116 8 -82 0 -119 -3
-115 -10z"/>
<path d="M4305 3560 c3 -5 26 -10 50 -10 24 0 47 5 50 10 4 6 -15 10 -50 10
-35 0 -54 -4 -50 -10z"/>
<path d="M4548 3563 c39 -2 105 -2 145 0 39 1 7 3 -73 3 -80 0 -112 -2 -72 -3z"/>
<path d="M3760 3482 c0 -10 129 -26 138 -17 10 9 -2 12 -70 20 -41 4 -68 3
-68 -3z"/>
<path d="M3980 3461 c0 -10 119 -25 128 -17 9 10 -1 13 -65 19 -35 4 -63 3
-63 -2z"/>
<path d="M1862 3448 c-49 -6 -80 -14 -75 -19 10 -10 179 9 203 22 19 11 -16
10 -128 -3z"/>
<path d="M4135 3440 c4 -6 18 -10 33 -9 15 1 70 -4 122 -10 104 -12 166 -14
158 -6 -6 6 -245 34 -291 35 -17 0 -26 -4 -22 -10z"/>
<path d="M1615 3419 c-136 -15 -238 -29 -285 -39 -70 -14 93 -2 210 16 52 7
120 14 150 14 30 0 62 5 70 10 18 12 -29 11 -145 -1z"/>
<path d="M3670 3396 c14 -7 50 -16 80 -19 l55 -6 -55 19 c-30 10 -66 19 -80
19 l-25 0 25 -13z"/>
<path d="M1963 3367 c-24 -5 -43 -14 -43 -20 0 -5 10 -7 23 -3 12 3 39 9 60
12 20 4 37 10 37 15 0 11 -22 10 -77 -4z"/>
<path d="M3815 3370 c-3 -5 1 -10 9 -10 9 0 16 5 16 10 0 6 -4 10 -9 10 -6 0
-13 -4 -16 -10z"/>
<path d="M3900 3352 c0 -5 57 -21 128 -36 70 -15 153 -34 184 -42 58 -14 116
-19 106 -8 -3 3 -46 14 -94 24 -49 10 -140 30 -203 44 -131 30 -121 28 -121
18z"/>
<path d="M1860 3340 c-12 -8 -9 -10 13 -10 15 0 27 5 27 10 0 13 -20 13 -40 0z"/>
<path d="M1693 3306 c-50 -12 -95 -25 -100 -30 -4 -5 3 -6 17 -3 14 4 66 14
115 23 50 9 94 20 100 25 14 14 -30 9 -132 -15z"/>
<path d="M2070 3284 c-79 -26 -142 -53 -125 -54 21 0 205 64 205 72 0 10 8 12
-80 -18z"/>
<path d="M3770 3290 c0 -4 8 -10 18 -13 9 -2 89 -28 176 -56 87 -28 164 -51
169 -51 30 0 -21 22 -138 60 -168 55 -225 70 -225 60z"/>
<path d="M2035 3174 c-115 -52 -231 -105 -257 -116 -27 -11 -48 -25 -48 -29 0
-12 2 -11 36 5 36 18 336 153 424 191 70 31 93 45 70 45 -8 0 -109 -43 -225
-96z"/>
<path d="M1455 3250 c-3 -5 1 -10 9 -10 9 0 16 5 16 10 0 6 -4 10 -9 10 -6 0
-13 -4 -16 -10z"/>
<path d="M1365 3238 c-22 -5 -47 -12 -55 -15 -8 -3 -26 -7 -40 -9 -53 -7 -164
-38 -152 -42 20 -6 322 60 316 70 -6 10 -16 9 -69 -4z"/>
<path d="M4410 3241 c13 -8 289 -71 307 -71 4 0 3 4 -2 9 -6 5 -62 20 -125 34
-137 30 -201 40 -180 28z"/>
<path d="M3660 3230 c0 -9 98 -57 139 -67 41 -9 21 3 -62 41 -42 20 -77 31
-77 26z"/>
<path d="M1740 3174 c-58 -20 -109 -40 -115 -45 -12 -13 35 -3 85 18 19 8 44
16 54 19 36 7 91 26 101 35 16 16 -17 8 -125 -27z"/>
<path d="M2247 3174 c-21 -14 -53 -33 -70 -43 -17 -9 -32 -22 -35 -29 -4 -12
144 73 153 89 10 15 -8 9 -48 -17z"/>
<path d="M4195 3150 c3 -5 11 -10 18 -10 6 0 62 -16 125 -36 62 -19 118 -34
125 -31 10 3 -36 20 -219 77 -39 13 -57 13 -49 0z"/>
<path d="M3510 3126 c0 -3 97 -76 228 -170 28 -21 52 -33 52 -27 0 5 -42 39
-92 75 -51 36 -97 69 -103 73 -65 52 -85 63 -85 49z"/>
<path d="M3930 3102 c71 -35 180 -83 250 -113 30 -12 59 -26 65 -31 11 -10 25
-10 25 0 0 4 -15 13 -32 21 -42 18 -128 57 -244 110 -99 45 -153 56 -64 13z"/>
<path d="M1482 3087 c-46 -18 -79 -33 -73 -35 11 -4 201 57 201 64 0 11 -53
-1 -128 -29z"/>
<path d="M3710 3112 c0 -8 105 -70 284 -170 5 -3 7 1 4 8 -2 7 -32 28 -67 46
-35 19 -69 38 -75 43 -31 23 -146 81 -146 73z"/>
<path d="M2025 3043 c-103 -62 -107 -64 -101 -70 7 -7 166 86 166 98 0 12 3
13 -65 -28z"/>
<path d="M2335 3035 c-27 -24 -47 -47 -43 -50 3 -4 30 16 60 44 65 62 52 67
-17 6z"/>
<path d="M1368 3043 c7 -3 16 -2 19 1 4 3 -2 6 -13 5 -11 0 -14 -3 -6 -6z"/>
<path d="M2024 2919 c-98 -72 -181 -135 -183 -141 -6 -17 25 4 184 121 199
148 202 150 189 150 -5 1 -91 -58 -190 -130z"/>
<path d="M1605 2980 c-3 -5 1 -10 9 -10 8 0 18 5 21 10 3 6 -1 10 -9 10 -8 0
-18 -4 -21 -10z"/>
<path d="M2265 2970 c-3 -5 -1 -10 4 -10 6 0 11 5 11 10 0 6 -2 10 -4 10 -3 0
-8 -4 -11 -10z"/>
<path d="M3440 2975 c0 -7 226 -260 259 -289 54 -48 10 8 -109 139 -127 140
-150 163 -150 150z"/>
<path d="M1553 2957 c-13 -5 -23 -13 -23 -18 0 -10 39 1 46 13 9 15 1 16 -23
5z"/>
<path d="M1871 2950 c-13 -11 -21 -20 -18 -20 14 0 57 24 57 32 0 13 -13 9
-39 -12z"/>
<path d="M1468 2923 c-10 -2 -18 -9 -18 -14 0 -13 12 -11 34 6 20 15 16 17
-16 8z"/>
<path d="M3640 2920 c0 -10 82 -90 93 -90 4 0 7 5 7 10 0 6 -3 10 -7 10 -5 0
-27 18 -50 40 -24 21 -43 35 -43 30z"/>
<path d="M4430 2879 c106 -50 164 -71 145 -51 -14 14 -219 102 -236 101 -8 0
33 -23 91 -50z"/>
<path d="M4070 2905 c0 -2 33 -23 73 -46 39 -23 98 -57 130 -76 62 -37 88 -40
39 -4 -17 12 -32 21 -35 21 -3 0 -47 25 -98 55 -87 51 -109 62 -109 50z"/>
<path d="M1400 2890 c-8 -5 -48 -24 -87 -41 -40 -17 -73 -35 -73 -40 0 -10 18
-3 123 44 42 20 77 38 77 41 0 9 -23 6 -40 -4z"/>
<path d="M2060 2784 c-120 -112 -154 -149 -114 -125 29 16 260 240 249 240 -5
0 -66 -52 -135 -115z"/>
<path d="M2175 2744 c-126 -141 -161 -185 -136 -170 14 9 281 304 281 311 0
17 -29 -11 -145 -141z"/>
<path d="M2355 2783 c-76 -105 -93 -133 -82 -133 7 0 156 207 164 226 13 33
-11 7 -82 -93z"/>
<path d="M2494 2837 c-32 -47 -56 -97 -47 -97 10 0 75 110 71 121 -2 5 -13 -6
-24 -24z"/>
<path d="M1650 2820 c-36 -21 -82 -48 -102 -60 -21 -11 -38 -25 -38 -31 0 -7
8 -6 23 3 12 8 59 37 105 63 78 45 104 65 85 65 -4 0 -37 -18 -73 -40z"/>
<path d="M3430 2852 c0 -5 9 -17 20 -27 22 -20 26 -14 10 16 -11 19 -30 26
-30 11z"/>
<path d="M3891 2852 c2 -5 56 -48 119 -94 63 -46 130 -94 147 -108 18 -13 35
-21 38 -18 4 3 -58 53 -137 110 -163 119 -172 125 -167 110z"/>
<path d="M2912 2754 c4 -115 18 -119 18 -5 0 59 -4 91 -11 91 -7 0 -9 -29 -7
-86z"/>
<path d="M3330 2832 c0 -4 4 -12 9 -17 5 -6 22 -35 39 -65 56 -102 67 -120 75
-120 11 0 12 -3 -53 112 -49 87 -70 114 -70 90z"/>
<path d="M3775 2790 c16 -16 36 -30 44 -30 9 0 2 12 -19 30 -46 38 -62 38 -25
0z"/>
<path d="M3160 2795 c0 -6 29 -98 64 -205 35 -107 83 -255 106 -327 24 -73 47
-133 51 -133 12 0 11 17 -1 25 -5 3 -10 14 -10 23 0 23 -190 605 -201 617 -6
5 -9 5 -9 0z"/>
<path d="M2656 2780 c-16 -43 -66 -209 -66 -221 1 -25 17 13 50 115 17 53 29
102 27 109 -3 8 -7 7 -11 -3z"/>
<path d="M3288 2745 c-8 -8 38 -109 52 -113 11 -4 7 11 -25 75 -11 24 -24 41
-27 38z"/>
<path d="M3537 2711 c124 -175 249 -338 251 -330 4 11 -258 369 -270 369 -5 0
4 -18 19 -39z"/>
<path d="M2477 2564 c-38 -86 -66 -159 -63 -162 3 -3 8 -3 10 -1 2 3 105 240
133 307 3 6 1 12 -3 12 -5 0 -40 -70 -77 -156z"/>
<path d="M3100 2714 c0 -30 34 -174 41 -174 12 0 12 -4 -11 91 -17 73 -30 108
-30 83z"/>
<path d="M1725 2700 c-8 -13 5 -13 25 0 13 8 13 10 -2 10 -9 0 -20 -4 -23 -10z"/>
<path d="M3925 2658 c78 -71 105 -91 111 -86 6 7 -143 138 -157 138 -7 0 13
-24 46 -52z"/>
<path d="M2721 2650 c-6 -28 -11 -63 -10 -78 1 -21 4 -17 13 18 21 75 26 110
17 110 -5 0 -14 -23 -20 -50z"/>
<path d="M1565 2584 c-72 -52 -132 -99 -134 -105 -5 -15 3 -10 124 78 136 99
150 111 145 117 -3 2 -64 -38 -135 -90z"/>
<path d="M2367 2618 c-8 -12 -51 -88 -97 -168 -45 -80 -91 -160 -102 -177 -11
-18 -15 -33 -10 -33 12 0 236 389 229 397 -3 2 -12 -6 -20 -19z"/>
<path d="M3015 2550 c4 -52 11 -99 17 -105 6 -7 7 23 3 85 -4 52 -12 100 -17
105 -7 7 -8 -23 -3 -85z"/>
<path d="M1794 2539 c-38 -34 -73 -65 -78 -70 -5 -5 -7 -12 -3 -16 4 -3 43 28
86 70 94 92 91 102 -5 16z"/>
<path d="M4240 2593 c0 -4 24 -23 53 -42 28 -19 62 -43 74 -54 12 -11 27 -17
33 -15 6 2 -23 28 -65 58 -81 58 -95 67 -95 53z"/>
<path d="M3802 2571 c7 -18 340 -382 345 -377 5 5 -168 204 -279 321 -27 28
-48 53 -48 58 0 4 -5 7 -11 7 -6 0 -9 -4 -7 -9z"/>
<path d="M2921 2378 c-1 -134 2 -198 10 -198 7 0 10 55 8 173 -4 243 -17 261
-18 25z"/>
<path d="M3492 2558 c7 -27 183 -328 186 -318 3 9 -18 50 -88 169 -8 14 -32
56 -53 94 -36 63 -53 84 -45 55z"/>
<path d="M2085 2403 c-60 -86 -112 -164 -114 -172 -4 -20 32 27 144 185 96
135 101 144 88 144 -4 0 -57 -71 -118 -157z"/>
<path d="M3412 2453 c49 -105 78 -153 63 -106 -14 47 -96 213 -104 213 -5 0
13 -48 41 -107z"/>
<path d="M4085 2515 c28 -24 55 -44 60 -44 6 0 -12 20 -40 44 -27 25 -54 45
-59 45 -6 0 12 -20 39 -45z"/>
<path d="M2796 2483 c-4 -38 -9 -87 -13 -110 -3 -26 -1 -43 5 -43 5 0 13 33
16 73 4 39 10 89 13 110 3 22 1 37 -5 37 -5 0 -13 -30 -16 -67z"/>
<path d="M2567 2498 c-20 -52 -47 -139 -47 -152 0 -27 21 18 45 97 29 92 30
128 2 55z"/>
<path d="M1945 2488 c-15 -18 -62 -71 -105 -118 -42 -47 -92 -103 -111 -125
-19 -22 -38 -43 -44 -47 -5 -4 -7 -10 -3 -13 3 -4 24 13 45 37 34 36 180 201
247 276 11 12 15 22 9 22 -6 0 -23 -15 -38 -32z"/>
<path d="M2686 2462 c-4 -19 -9 -43 -11 -55 -2 -12 -15 -75 -29 -140 -23 -105
-33 -177 -22 -166 9 9 77 359 74 376 -3 12 -7 7 -12 -15z"/>
<path d="M3163 2414 c4 -16 15 -69 26 -119 35 -167 73 -330 77 -334 14 -14 10
18 -12 115 -56 248 -64 281 -70 317 -3 20 -11 40 -17 44 -7 4 -8 -4 -4 -23z"/>
<path d="M3034 2363 c4 -32 12 -62 18 -68 8 -7 9 0 4 24 -3 18 -6 49 -6 67 0
19 -5 34 -11 34 -8 0 -10 -17 -5 -57z"/>
<path d="M3800 2355 c0 -10 83 -115 88 -110 6 6 -69 115 -80 115 -4 0 -8 -2
-8 -5z"/>
<path d="M2359 2293 c-5 -15 -23 -56 -39 -92 -50 -117 -59 -141 -51 -141 4 0
16 19 26 43 35 84 43 103 61 142 10 22 21 48 26 58 4 10 3 17 -3 17 -5 0 -14
-12 -20 -27z"/>
<path d="M2782 2290 c0 -14 2 -19 5 -12 2 6 2 18 0 25 -3 6 -5 1 -5 -13z"/>
<path d="M2488 2254 c-18 -44 -32 -104 -25 -104 3 0 15 27 27 59 24 66 23 108
-2 45z"/>
<path d="M3510 2246 c0 -2 12 -30 26 -62 14 -33 31 -71 37 -86 10 -24 27 -38
27 -23 0 11 -79 175 -85 175 -3 0 -5 -2 -5 -4z"/>
<path d="M3057 2183 c8 -52 13 -54 13 -5 0 23 -4 42 -9 42 -6 0 -7 -17 -4 -37z"/>
<path d="M2106 2161 c-14 -22 -40 -66 -57 -98 -17 -32 -37 -68 -46 -80 -8 -13
-11 -23 -5 -23 11 0 145 230 138 237 -3 3 -16 -13 -30 -36z"/>
<path d="M2760 2158 c0 -11 -13 -139 -37 -375 -3 -35 -1 -53 6 -53 6 0 10 10
10 23 -2 24 28 346 36 390 2 15 0 27 -5 27 -6 0 -10 -6 -10 -12z"/>
<path d="M3730 2144 c0 -16 104 -187 107 -177 3 7 -17 48 -42 92 -43 74 -65
103 -65 85z"/>
<path d="M2401 1986 c-29 -87 -51 -166 -49 -175 2 -9 28 57 57 147 29 89 51
168 48 175 -2 6 -27 -59 -56 -147z"/>
<path d="M3063 2104 c4 -16 9 -69 13 -118 4 -49 11 -101 15 -115 6 -17 7 0 4
49 -9 138 -17 200 -27 206 -6 4 -8 -5 -5 -22z"/>
<path d="M2920 2020 c0 -60 4 -100 10 -100 6 0 10 40 10 100 0 60 -4 100 -10
100 -6 0 -10 -40 -10 -100z"/>
<path d="M2602 2048 c-18 -73 -20 -88 -12 -88 9 0 35 118 28 126 -3 2 -10 -15
-16 -38z"/>
<path d="M3415 2008 c40 -131 69 -211 72 -200 6 16 -59 222 -70 222 -5 0 -5
-10 -2 -22z"/>
<path d="M3101 1788 c0 -26 4 -50 9 -53 11 -7 11 25 0 70 -7 27 -8 25 -9 -17z"/>
<path d="M1005 1433 l-80 -4 3 -130 c3 -91 0 -134 -8 -145 -11 -12 1 -14 88
-14 99 0 100 0 105 25 4 24 3 24 -13 10 -10 -9 -36 -15 -69 -15 l-52 0 3 58
c3 57 3 57 36 60 18 2 40 -2 48 -9 12 -9 14 -7 14 16 0 23 -2 25 -14 16 -8 -7
-30 -11 -48 -9 l-33 3 0 60 0 60 43 3 c24 2 50 -2 58 -9 11 -9 14 -7 14 10 0
11 -3 20 -7 19 -5 -1 -44 -4 -88 -5z"/>
<path d="M1975 1422 c-96 -45 -113 -172 -34 -248 25 -24 39 -29 98 -32 80 -5
122 12 151 61 22 35 27 108 11 150 -27 70 -146 107 -226 69z m156 -46 c20 -34
26 -117 10 -158 -16 -41 -50 -68 -85 -68 -88 0 -134 117 -85 217 15 32 29 45
52 51 44 12 85 -4 108 -42z"/>
<path d="M3365 1433 l-80 -4 3 -130 c3 -91 0 -134 -8 -145 -11 -12 1 -14 88
-14 99 0 100 0 105 25 4 24 3 24 -13 10 -10 -9 -36 -15 -69 -15 l-52 0 3 58 3
57 48 -1 c28 0 47 4 47 11 0 7 -19 11 -47 11 l-48 -1 0 60 0 60 43 3 c24 2 50
-2 58 -9 11 -9 14 -7 14 10 0 11 -3 20 -7 19 -5 -1 -44 -4 -88 -5z"/>
<path d="M4620 1418 c-96 -49 -108 -170 -25 -248 21 -20 39 -25 95 -28 58 -4
75 -1 105 18 45 28 65 66 65 124 0 61 -13 89 -54 121 -51 38 -126 44 -186 13z
m138 -11 c38 -30 55 -131 33 -190 -36 -93 -154 -86 -181 11 -15 55 -12 91 11
138 28 59 91 77 137 41z"/>
<path d="M4946 1419 c-23 -18 -27 -28 -24 -62 3 -38 8 -44 68 -87 70 -50 87
-83 54 -107 -33 -24 -80 -16 -108 18 l-26 31 0 -26 c0 -33 26 -46 88 -46 67 0
102 27 102 79 0 41 -12 56 -92 110 -53 36 -61 62 -25 85 23 15 77 11 77 -5 0
-5 5 -9 10 -9 20 0 9 28 -12 34 -44 11 -86 6 -112 -15z"/>
<path d="M1188 1285 l-3 -146 95 3 c93 3 95 4 99 28 3 24 2 24 -16 7 -13 -11
-36 -17 -67 -17 l-47 0 3 135 3 135 -32 0 -32 0 -3 -145z"/>
<path d="M1558 1300 c3 -92 0 -135 -8 -146 -11 -12 -5 -14 35 -14 40 0 46 2
36 14 -7 8 -11 37 -9 68 l3 53 70 0 70 0 3 -53 c2 -31 -2 -60 -9 -68 -10 -12
-4 -14 36 -14 40 0 46 2 35 14 -8 11 -11 54 -8 146 l3 130 -31 0 -31 0 5 -65
c2 -36 1 -65 -4 -66 -5 0 -18 -2 -29 -5 -11 -2 -42 -1 -69 3 l-48 6 4 63 4 64
-31 0 -30 0 3 -130z"/>
<path d="M2505 1333 c-33 -57 -63 -103 -67 -103 -4 0 -33 43 -64 95 -31 52
-60 95 -64 95 -4 0 -13 -53 -20 -117 -7 -65 -16 -128 -21 -140 -7 -19 -5 -23
10 -23 15 0 18 9 20 58 1 31 5 71 9 87 8 29 9 28 58 -53 27 -45 51 -82 54 -82
3 0 25 37 48 81 26 47 48 77 53 72 5 -5 10 -43 11 -86 l3 -77 44 0 c36 0 41 2
32 14 -6 7 -18 67 -26 132 -9 66 -17 126 -18 134 -2 8 -30 -31 -62 -87z"/>
<path d="M2688 1300 c3 -98 0 -135 -10 -147 -11 -14 -4 -15 81 -11 87 4 96 6
117 32 13 15 24 38 24 52 0 24 -25 57 -51 67 -11 4 -11 7 3 18 31 25 33 65 4
93 -22 23 -33 26 -98 26 l-73 0 3 -130z m112 100 c24 -24 25 -48 4 -79 -15
-21 -15 -23 5 -37 15 -11 21 -26 21 -54 0 -46 -21 -70 -61 -70 l-30 0 2 123
c0 67 3 125 6 130 8 13 33 7 53 -13z"/>
<path d="M2978 1300 c3 -92 0 -135 -8 -146 -11 -12 -5 -14 35 -14 39 0 45 2
36 14 -8 9 -11 55 -9 137 3 119 4 124 25 127 28 4 63 -31 63 -62 0 -14 -11
-37 -24 -53 l-24 -28 23 -50 c27 -62 43 -75 97 -83 l43 -5 -27 29 c-15 16 -40
47 -55 68 l-28 39 27 28 c35 34 36 72 3 104 -21 22 -33 25 -102 25 l-78 0 3
-130z"/>
<path d="M3637 1408 c11 -13 34 -47 52 -77 30 -49 32 -60 29 -122 l-3 -69 35
0 35 0 -3 69 c-4 68 -3 70 47 145 49 74 50 76 25 76 -14 0 -23 -4 -19 -10 7
-11 -52 -120 -64 -120 -11 0 -61 94 -61 114 0 12 -10 16 -47 16 l-46 0 20 -22z"/>
<path d="M4058 1299 c2 -90 -1 -135 -9 -145 -10 -12 0 -14 67 -14 104 0 146
13 183 56 26 29 31 43 31 85 0 62 -19 101 -63 128 -28 17 -50 21 -123 21 l-89
0 3 -131z m174 92 c28 -25 32 -35 36 -92 3 -55 0 -69 -20 -99 -21 -32 -29 -35
-76 -38 l-52 -3 0 130 0 131 40 0 c30 0 48 -7 72 -29z"/>
<path d="M4408 1300 c3 -92 0 -135 -8 -146 -11 -12 -5 -14 35 -14 40 0 46 2
35 14 -8 11 -11 54 -8 146 l3 130 -30 0 -30 0 3 -130z"/>
</g>
</svg>
